<svg width="33" height="37" viewBox="0 0 33 37" fill="none" xmlns="http://www.w3.org/2000/svg">
<path d="M11.2836 7.66968C10.5754 7.66968 9.44177 8.17279 8.93789 8.58204C8.57311 8.87832 8.09785 9.26457 7.8978 9.65941C7.766 9.91954 7.78136 10.3343 7.58798 10.5524C6.30797 11.996 6.90196 15.2292 6.90196 16.9292C6.90196 18.499 6.06337 20.2854 4.81071 21.3843C4.18035 21.9372 3.44251 21.8497 2.71945 22.1316C2.51341 22.2119 1.81903 22.1704 2.04449 22.1704C2.53504 22.1704 3.02558 22.1704 3.51612 22.1704C8.79697 22.1704 4.24835 30.5802 6.70279 33.0023C7.77813 34.0635 8.85995 34.3796 10.2435 35.0988C11.3451 35.6715 13.7897 35.2735 15.0678 35.2735" stroke="#0B4141" stroke-width="3" stroke-linecap="round"/>
<path d="M11.2836 7.66968C10.5754 7.66968 9.44177 8.17279 8.93789 8.58204C8.57311 8.87832 8.09785 9.26457 7.8978 9.65941C7.766 9.91954 7.78136 10.3343 7.58798 10.5524C6.30797 11.996 6.90196 15.2292 6.90196 16.9292C6.90196 18.499 6.06337 20.2854 4.81071 21.3843C4.18035 21.9372 3.44251 21.8497 2.71945 22.1316C2.51341 22.2119 1.81903 22.1704 2.04449 22.1704C2.53504 22.1704 3.02558 22.1704 3.51612 22.1704C8.79697 22.1704 4.24835 30.5802 6.70279 33.0023C7.77813 34.0635 8.85995 34.3796 10.2435 35.0988C11.3451 35.6715 13.7897 35.2735 15.0678 35.2735" stroke="#0B4141" stroke-width="3" stroke-linecap="round"/>
<path d="M20.2256 35.4979C20.9339 35.4979 22.0675 34.9948 22.5714 34.5856C22.9362 34.2893 23.4114 33.903 23.6115 33.5082C23.7433 33.2481 23.7279 32.8333 23.9213 32.6152C25.2013 31.1716 24.6073 27.9384 24.6073 26.2384C24.6073 24.6686 25.4459 22.8822 26.6986 21.7833C27.3289 21.2304 28.0668 21.3179 28.7898 21.036C28.9959 20.9557 29.6903 20.9972 29.4648 20.9972C28.9742 20.9972 28.4837 20.9972 27.9932 20.9972C22.7123 20.9972 27.2609 12.5874 24.8065 10.1653C23.7311 9.10408 22.6493 8.78799 21.2657 8.06877C20.1642 7.49615 17.7196 7.89406 16.4415 7.89406" stroke="#0B4141" stroke-width="3" stroke-linecap="round"/>
<path d="M17.4577 2.60315C16.1299 2.60315 14.8021 2.60315 13.4743 2.60315C12.2505 2.60315 12.2206 3.02138 12.2793 4.00081C12.3351 4.93042 12.6777 5.83819 12.6777 6.80585C12.6777 7.81851 12.6777 8.83117 12.6777 9.84383C12.6777 12.7621 12.6777 15.6804 12.6777 18.5986C12.6777 21.3742 12.4785 24.1203 12.4785 26.8876C12.4785 27.1071 12.8298 30.6819 12.9875 30.7214C13.9807 30.9703 15.4361 30.7311 16.4618 30.7311C17.6565 30.7311 18.9616 30.9058 20.0469 30.9058" stroke="#ADC355" stroke-width="3" stroke-linecap="round"/>
<path d="M24.8273 2.07904C25.742 2.07904 26.6567 2.07904 27.5714 2.07904C28.2985 2.07904 29.5523 1.84792 30.1937 2.1761C31.7378 2.96622 30.6211 6.70905 30.4482 7.92206C30.0734 10.5525 30.404 13.4017 30.404 16.0557C30.404 17.1622 30.404 18.2687 30.404 19.3751" stroke="#ADC355" stroke-width="3" stroke-linecap="round"/>
<path d="M30.0692 22.1949C30.0692 24.646 30.1513 27.0827 30.1513 29.5228C30.1513 29.7623 30.2724 30.4006 30.0875 30.5628C29.773 30.8386 29.247 30.8087 28.838 30.8907C28.4784 30.9628 27.962 30.9623 27.6069 30.9787C27.1362 31.0005 26.6924 31.1227 26.2115 31.1227" stroke="#ADC355" stroke-width="3" stroke-linecap="round"/>
<path d="M6.13269 27.987C8.81112 26.1903 11.6409 23.8574 13.4398 21.3214C14.2695 20.1518 15.3721 18.6978 15.7732 17.3489C15.79 17.2925 16.0139 16.5675 16.1493 16.615C16.382 16.6967 16.2184 18.1503 16.2184 18.3858C16.2184 19.6342 17.5177 18.771 18.0145 18.2108C18.4203 17.7531 18.4902 17.2145 18.7743 16.716C19.17 16.022 19.2168 16.8159 19.2656 17.2008C19.3503 17.8693 20.4963 18.5066 21.1231 17.9145C23.4819 15.6862 24.8702 12.8127 26.6034 10.212C27.5968 8.72148 28.745 7.29643 29.5508 5.74134C29.8343 5.19433 30.1726 4.88544 30.1726 4.23315" stroke="#FF6864" stroke-width="3" stroke-linecap="round"/>
</svg>
